<svg xmlns="http://www.w3.org/2000/svg" width="180" height="180" viewBox="0 0 180 180" version="1.1"><path d="M 15.750 54.488 L 18 56.113 18 90 L 18 123.887 15.750 125.508 C 13.645 127.024, 14.495 127.107, 29 126.801 C 41.720 126.532, 45.128 126.141, 48 124.622 C 53.846 121.531, 56.979 117.880, 58.614 112.254 C 61.558 102.130, 57.153 91.725, 48.260 87.791 L 43.802 85.819 47.294 83.446 C 51.038 80.902, 55 73.935, 55 69.896 C 55 65.161, 50.790 58.661, 46 56 C 41.905 53.725, 40.239 53.471, 27.500 53.181 C 14.363 52.883, 13.639 52.963, 15.750 54.488 M 70.899 54.899 C 72.949 56.949, 73 57.807, 73 90 C 73 121.667, 72.919 123.081, 71 125 L 69 127 77 127 L 85 127 83 125 C 81.167 123.167, 81 121.667, 81 107 L 81 91 85.962 91 C 95.344 91, 105.163 85.565, 108.880 78.316 C 109.496 77.114, 110 73.693, 110 70.714 C 110 63.694, 107.194 59.349, 100.499 56 C 96.068 53.784, 93.984 53.460, 82.149 53.149 L 68.799 52.799 70.899 54.899 M 121.777 54.557 C 124 56.113, 124 56.116, 124 90 C 124 123.884, 124 123.887, 121.777 125.443 C 119.739 126.871, 121.474 127, 142.777 127 L 166 127 165.910 119.750 C 165.833 113.601, 165.680 112.984, 164.898 115.687 C 163.075 121.988, 160.371 123, 145.365 123 L 132 123 132 90.635 C 132 59.406, 132.073 58.177, 134.073 55.635 L 136.145 53 127.850 53 C 120.057 53, 119.690 53.094, 121.777 54.557 M 26 71 L 26 85 31.032 85 C 41.352 85, 47.003 80.262, 46.996 71.615 C 46.989 62.053, 41.470 57, 31.032 57 L 26 57 26 71 M 81 71.980 L 81 87.240 86.907 86.813 C 97.270 86.063, 103.846 79.347, 102.686 70.697 C 101.659 63.040, 95.899 58.258, 86.541 57.292 L 81 56.720 81 71.980 M 26 106.645 L 26 124.290 33.092 123.696 C 44.544 122.735, 50.600 118.401, 51.674 110.394 C 52.772 102.208, 48.120 93.202, 41.329 90.364 C 39.533 89.614, 35.350 89, 32.032 89 L 26 89 26 106.645" stroke="none" fill="#f0f0f0" fill-rule="evenodd"/><path d="M 8.520 2.287 C 6.289 3.551, 3.551 6.289, 2.287 8.520 L 0.033 12.500 0.033 90 L 0.033 167.500 2.287 171.480 C 3.551 173.711, 6.289 176.449, 8.520 177.713 L 12.500 179.967 90 179.967 L 167.500 179.967 171.436 177.734 C 173.653 176.476, 176.567 173.535, 178.108 171 L 180.843 166.500 180.921 88.583 C 180.965 45.729, 180.697 10.970, 180.326 11.341 C 179.955 11.712, 178.708 10.333, 177.555 8.278 C 176.403 6.222, 173.668 3.526, 171.480 2.287 L 167.500 0.033 90 0.033 L 12.500 0.033 8.520 2.287 M 0.476 90 C 0.476 133.175, 0.599 150.838, 0.750 129.250 C 0.900 107.663, 0.900 72.338, 0.750 50.750 C 0.599 29.163, 0.476 46.825, 0.476 90 M 15.750 54.488 L 18 56.113 18 90 L 18 123.887 15.750 125.508 C 13.645 127.024, 14.495 127.107, 29 126.801 C 41.720 126.532, 45.128 126.141, 48 124.622 C 53.846 121.531, 56.979 117.880, 58.614 112.254 C 61.558 102.130, 57.153 91.725, 48.260 87.791 L 43.802 85.819 47.294 83.446 C 51.038 80.902, 55 73.935, 55 69.896 C 55 65.161, 50.790 58.661, 46 56 C 41.905 53.725, 40.239 53.471, 27.500 53.181 C 14.363 52.883, 13.639 52.963, 15.750 54.488 M 70.899 54.899 C 72.949 56.949, 73 57.807, 73 90 C 73 121.667, 72.919 123.081, 71 125 L 69 127 77 127 L 85 127 83 125 C 81.167 123.167, 81 121.667, 81 107 L 81 91 85.962 91 C 95.344 91, 105.163 85.565, 108.880 78.316 C 109.496 77.114, 110 73.693, 110 70.714 C 110 63.694, 107.194 59.349, 100.499 56 C 96.068 53.784, 93.984 53.460, 82.149 53.149 L 68.799 52.799 70.899 54.899 M 121.777 54.557 C 124 56.113, 124 56.116, 124 90 C 124 123.884, 124 123.887, 121.777 125.443 C 119.739 126.871, 121.474 127, 142.777 127 L 166 127 165.910 119.750 C 165.833 113.601, 165.680 112.984, 164.898 115.687 C 163.075 121.988, 160.371 123, 145.365 123 L 132 123 132 90.635 C 132 59.406, 132.073 58.177, 134.073 55.635 L 136.145 53 127.850 53 C 120.057 53, 119.690 53.094, 121.777 54.557 M 26 71 L 26 85 31.032 85 C 41.352 85, 47.003 80.262, 46.996 71.615 C 46.989 62.053, 41.470 57, 31.032 57 L 26 57 26 71 M 81 71.980 L 81 87.240 86.907 86.813 C 97.270 86.063, 103.846 79.347, 102.686 70.697 C 101.659 63.040, 95.899 58.258, 86.541 57.292 L 81 56.720 81 71.980 M 26 106.645 L 26 124.290 33.092 123.696 C 44.544 122.735, 50.600 118.401, 51.674 110.394 C 52.772 102.208, 48.120 93.202, 41.329 90.364 C 39.533 89.614, 35.350 89, 32.032 89 L 26 89 26 106.645" stroke="none" fill="#040404" fill-rule="evenodd"/></svg>