<?xml version="1.0" encoding="utf-8"?><svg viewBox="0 0 28 28" xmlns="http://www.w3.org/2000/svg" xmlns:xlink="http://www.w3.org/1999/xlink"><style>:root>svg{display:none}:root>svg:target{display:block}</style><svg fill="none" viewBox="0 0 21 21" id="Visit-icon" xmlns="http://www.w3.org/2000/svg"><path fill-rule="evenodd" clip-rule="evenodd" d="M10.5 10a5 5 0 100-10 5 5 0 000 10zm7.071 3.929A10 10 0 0120.5 21H.5a10 10 0 0117.071-7.071z" fill="#BB945F"/></svg><svg fill="none" viewBox="0 0 20 21" id="bonuses-icon" xmlns="http://www.w3.org/2000/svg"><path d="M10 0l2.225 3.31 3.653-1.305-.053 4.051 3.686 1.2L17.2 10.5l2.31 3.245-3.685 1.199.053 4.05-3.653-1.304L10 21l-2.225-3.31-3.653 1.305.053-4.051-3.686-1.2L2.8 10.5.49 7.255l3.685-1.199-.053-4.05L7.775 3.31 10 0z" fill="#BB945F"/></svg><svg fill="none" viewBox="0 0 20 21" id="book-icon" xmlns="http://www.w3.org/2000/svg"><path fill="#BB945F" d="M0 0h20v21H0z"/><path fill="#826844" d="M2 0h1v19H2z"/><path fill="#fff" d="M1 0h1v21H1z"/></svg><svg fill="none" viewBox="0 0 11 20" id="facebook" xmlns="http://www.w3.org/2000/svg"><path d="M9.12 3.32H11V.14A26.111 26.111 0 008.26 0C5.54 0 3.68 1.66 3.68 4.7v2.62H.61v3.56h3.07V20h3.68v-9.12h3.06l.46-3.56H7.36V5.05c0-1.05.28-1.73 1.76-1.73z" fill="#F5EFDB"/></svg><svg fill="none" viewBox="0 0 28 28" id="icon_profile" xmlns="http://www.w3.org/2000/svg"><path fill-rule="evenodd" clip-rule="evenodd" d="M28 14c0 7.732-6.268 14-14 14S0 21.732 0 14 6.268 0 14 0s14 6.268 14 14zm-9.333-6.222a4.667 4.667 0 11-9.333 0 4.667 4.667 0 019.333 0zm.833 8.5a7.778 7.778 0 012.278 5.5H6.222a7.778 7.778 0 0113.278-5.5z" fill="#fff"/></svg><svg fill="none" viewBox="0 0 20 20" id="instagram" xmlns="http://www.w3.org/2000/svg"><path d="M15.34 3.46a1.2 1.2 0 100 2.4 1.2 1.2 0 000-2.4zm4.6 2.42a7.588 7.588 0 00-.46-2.43 4.94 4.94 0 00-1.16-1.77A4.7 4.7 0 0016.55.53a7.3 7.3 0 00-2.43-.47C13.06 0 12.72 0 10 0S6.94 0 5.88.06a7.3 7.3 0 00-2.43.47 4.78 4.78 0 00-1.77 1.15A4.7 4.7 0 00.53 3.45a7.3 7.3 0 00-.47 2.43C0 6.94 0 7.28 0 10s0 3.06.06 4.12a7.3 7.3 0 00.47 2.43 4.7 4.7 0 001.15 1.77 4.78 4.78 0 001.77 1.15 7.3 7.3 0 002.43.47C6.94 20 7.28 20 10 20s3.06 0 4.12-.06a7.3 7.3 0 002.43-.47 4.7 4.7 0 001.77-1.15 4.85 4.85 0 001.16-1.77c.285-.78.44-1.6.46-2.43 0-1.06.06-1.4.06-4.12s0-3.06-.06-4.12zM18.14 14a5.61 5.61 0 01-.34 1.86 3.06 3.06 0 01-.75 1.15c-.324.33-.717.586-1.15.75a5.61 5.61 0 01-1.86.34c-1 .05-1.37.06-4 .06s-3 0-4-.06a5.73 5.73 0 01-1.94-.3 3.27 3.27 0 01-1.1-.75 3 3 0 01-.74-1.15 5.54 5.54 0 01-.4-1.9c0-1-.06-1.37-.06-4s0-3 .06-4a5.54 5.54 0 01.35-1.9A3 3 0 013 3a3.14 3.14 0 011.1-.8A5.73 5.73 0 016 1.86c1 0 1.37-.06 4-.06s3 0 4 .06a5.61 5.61 0 011.86.34 3.06 3.06 0 011.19.8c.328.307.584.683.75 1.1.222.609.337 1.252.34 1.9.05 1 .06 1.37.06 4s-.01 3-.06 4zM10 4.87A5.13 5.13 0 1015.14 10 5.12 5.12 0 0010 4.87zm0 8.46a3.33 3.33 0 110-6.66 3.33 3.33 0 010 6.66z" fill="#F5EFDB"/></svg><svg fill="none" viewBox="0 0 24 24" id="twitter" xmlns="http://www.w3.org/2000/svg"><path d="M22.991 3.95a1 1 0 00-1.51-.86 7.48 7.48 0 01-1.873.794 5.152 5.152 0 00-3.375-1.242 5.232 5.232 0 00-5.223 5.063 11.032 11.032 0 01-6.814-3.924 1.011 1.011 0 00-.857-.365.998.998 0 00-.785.5 5.275 5.275 0 00-.242 4.769l-.002.002a1.041 1.041 0 00-.496.888 3.04 3.04 0 00.027.44 5.185 5.185 0 001.568 3.312.999.999 0 00-.066.77 5.204 5.204 0 002.362 2.921 7.465 7.465 0 01-3.59.449A1 1 0 001.45 19.3a12.942 12.942 0 007.01 2.061 12.788 12.788 0 0012.465-9.363c.353-1.183.533-2.412.535-3.646l-.001-.2a5.77 5.77 0 001.532-4.202zm-3.306 3.212a.995.995 0 00-.234.702c.01.165.009.331.009.488a10.825 10.825 0 01-.454 3.08 10.685 10.685 0 01-10.546 7.93c-.86 0-1.715-.101-2.55-.301a9.48 9.48 0 002.942-1.564 1.001 1.001 0 00-.602-1.786 3.208 3.208 0 01-2.214-.935c.15-.028.298-.063.445-.105a1 1 0 00-.08-1.944 3.197 3.197 0 01-2.25-1.725c.181.025.363.04.545.046a1.022 1.022 0 00.984-.696 1 1 0 00-.4-1.137A3.196 3.196 0 013.86 6.344a13.014 13.014 0 008.21 3.48 1.02 1.02 0 00.817-.36 1 1 0 00.206-.867 3.164 3.164 0 01-.087-.729 3.23 3.23 0 014.506-2.962c.403.176.766.433 1.065.756a.993.993 0 00.921.298 9.27 9.27 0 001.212-.322 6.679 6.679 0 01-1.026 1.524z" fill="#F5EFDB"/></svg></svg>