<svg width="0" height="0" class="hidden">
  <symbol xmlns="http://www.w3.org/2000/svg" role="img" xmlns:xlink="http://www.w3.org/1999/xlink" viewBox="0 0 64 64" id="github">
    <title>Github</title>
    <desc>A solid styled icon from Orion Icon Library.</desc>
    <path d="M32 0a32.021 32.021 0 0 0-10.1 62.4c1.6.3 2.2-.7 2.2-1.5v-6c-8.9 1.9-10.8-3.8-10.8-3.8-1.5-3.7-3.6-4.7-3.6-4.7-2.9-2 .2-1.9.2-1.9 3.2.2 4.9 3.3 4.9 3.3 2.9 4.9 7.5 3.5 9.3 2.7a6.93 6.93 0 0 1 2-4.3c-7.1-.8-14.6-3.6-14.6-15.8a12.27 12.27 0 0 1 3.3-8.6 11.965 11.965 0 0 1 .3-8.5s2.7-.9 8.8 3.3a30.873 30.873 0 0 1 8-1.1 30.292 30.292 0 0 1 8 1.1c6.1-4.1 8.8-3.3 8.8-3.3a11.965 11.965 0 0 1 .3 8.5 12.1 12.1 0 0 1 3.3 8.6c0 12.3-7.5 15-14.6 15.8a7.746 7.746 0 0 1 2.2 5.9v8.8c0 .9.6 1.8 2.2 1.5A32.021 32.021 0 0 0 32 0z" ></path>
    <path d="M12.1 45.9c-.1.2-.3.2-.5.1s-.4-.3-.3-.5.3-.2.6-.1c.2.2.3.4.2.5zm1.3 1.5a.589.589 0 0 1-.8-.8.631.631 0 0 1 .7.1.494.494 0 0 1 .1.7zm1.3 1.8a.585.585 0 0 1-.7-.3.6.6 0 0 1 0-.8.585.585 0 0 1 .7.3c.2.3.2.7 0 .8zm1.7 1.8c-.2.2-.5.1-.8-.1-.3-.3-.4-.6-.2-.8a.619.619 0 0 1 .8.1.554.554 0 0 1 .2.8zm2.4 1c-.1.3-.4.4-.8.3s-.6-.4-.5-.7.4-.4.8-.3c.3.2.6.5.5.7zm2.6.2c0 .3-.3.5-.7.5s-.7-.2-.7-.5.3-.5.7-.5c.4.1.7.3.7.5zm2.4-.4q0 .45-.6.6a.691.691 0 0 1-.8-.3q0-.45.6-.6c.5-.1.8.1.8.3z" ></path>
  </symbol>
  <symbol xmlns="http://www.w3.org/2000/svg" viewBox="0 0 552.85 198.67" id="rs_school">
    <title>rs_school</title>
    <g>
      <g>
        <path d="M275.36 61.37l26.29-1.65q.86 6.41 3.48 9.76 4.28 5.43 12.2 5.43 5.91 0 9.12-2.77a8.34 8.34 0 0 0 3.2-6.44 8.18 8.18 0 0 0-3-6.22q-3-2.74-14.15-5.19-18.18-4.08-25.93-10.86a21.84 21.84 0 0 1-7.81-17.26 23.44 23.44 0 0 1 4-13 26.47 26.47 0 0 1 12-9.64q8-3.51 22-3.51 17.14 0 26.14 6.38t10.71 20.28l-26.05 1.52q-1-6-4.36-8.78t-9.2-2.77c-3.21 0-5.63.69-7.25 2.05a6.25 6.25 0 0 0-2.44 5 5 5 0 0 0 2 3.84q1.95 1.77 9.27 3.3 18.12 3.9 26 7.9t11.4 9.91a25.12 25.12 0 0 1 3.57 13.24 28.37 28.37 0 0 1-4.75 15.86 29.83 29.83 0 0 1-13.3 11q-8.55 3.75-21.54 3.75-22.81 0-31.6-8.78t-10-22.35zM6.27 91V1.53h46.06q12.81 0 19.58 2.19a20.93 20.93 0 0 1 10.92 8.14A24.75 24.75 0 0 1 87 26.35a24.8 24.8 0 0 1-3.2 12.84A24.91 24.91 0 0 1 75.07 48a33.63 33.63 0 0 1-9.7 3.54 27.79 27.79 0 0 1 7.19 3.29A27.79 27.79 0 0 1 77 59.49 35.16 35.16 0 0 1 80.85 65l13.38 26H63L48.24 63.63q-2.81-5.31-5-6.9a11.63 11.63 0 0 0-6.78-2.07H34V91zM34 37.76h11.68A41 41 0 0 0 53 36.54a7.3 7.3 0 0 0 4.48-2.81 8.24 8.24 0 0 0 1.74-5.18 8.23 8.23 0 0 0-2.75-6.65q-2.74-2.32-10.31-2.32H34zM0 167.56l26.29-1.64q.86 6.41 3.48 9.76Q34 181.11 42 181.11q5.91 0 9.12-2.78a8.34 8.34 0 0 0 3.2-6.44 8.2 8.2 0 0 0-3-6.22q-3-2.74-14.15-5.18-18.18-4.1-25.93-10.86a21.87 21.87 0 0 1-7.81-17.27 23.49 23.49 0 0 1 4-13 26.47 26.47 0 0 1 12-9.64q8-3.51 22-3.51 17.14 0 26.14 6.38t10.71 20.28l-26 1.53q-1-6-4.36-8.79t-9.19-2.74q-4.81 0-7.25 2a6.25 6.25 0 0 0-2.44 5 5 5 0 0 0 2 3.85q1.95 1.77 9.27 3.29 18.12 3.9 26 7.9t11.4 9.91a25.15 25.15 0 0 1 3.57 13.24 28.35 28.35 0 0 1-4.75 15.86 29.83 29.83 0 0 1-13.3 11q-8.55 3.75-21.54 3.75-22.81 0-31.6-8.78T0 167.56zm163-7.01l24.22 7.32a44.72 44.72 0 0 1-7.69 17 33.46 33.46 0 0 1-13 10.31q-7.78 3.47-19.8 3.47-14.58 0-23.82-4.23t-16-14.91q-6.72-10.67-6.71-27.31 0-22.18 11.8-34.11t33.4-11.92q16.91 0 26.57 6.84t14.36 21l-24.4 5.43a21 21 0 0 0-2.68-6 16 16 0 0 0-5.67-4.88 16.31 16.31 0 0 0-7.51-1.71q-9.39 0-14.39 7.56-3.8 5.61-3.79 17.61 0 14.86 4.52 20.38t12.69 5.51q7.92 0 12-4.45t5.9-12.91zm45.51-52.83h27.63V139h30.2v-31.28h27.75v89.43h-27.75V161h-30.2v36.18h-27.63zm102.78 44.77q0-21.88 12.2-34.1t34-12.2q22.32 0 34.4 12T404 151.76q0 15.69-5.28 25.72a37.54 37.54 0 0 1-15.25 15.61q-10 5.58-24.86 5.58-15.12 0-25-4.82a37.59 37.59 0 0 1-16.07-15.25q-6.26-10.42-6.25-26.11zm27.63.13q0 13.55 5 19.46t13.7 5.91q8.91 0 13.79-5.79t4.88-20.8q0-12.63-5.1-18.46t-13.82-5.82A16.78 16.78 0 0 0 344 133q-5.07 6-5.08 19.62z"></path>
        <path d="M392.28 152.49q0-21.88 12.2-34.1t34-12.2q22.34 0 34.41 12t12.07 33.58q0 15.69-5.27 25.72a37.6 37.6 0 0 1-15.25 15.61q-10 5.58-24.86 5.58-15.13 0-25-4.82a37.67 37.67 0 0 1-16.08-15.25q-6.22-10.43-6.22-26.12zm27.64.13q0 13.55 5 19.46t13.72 5.92q8.91 0 13.79-5.79t4.88-20.8q0-12.63-5.09-18.46t-13.82-5.82A16.77 16.77 0 0 0 425 133q-5.09 6-5.08 19.62z"></path>
        <path d="M482.08 107.72h27.64v67.41h43.13v22h-70.77z"></path>
      </g>
    </g>
  </symbol>
  <symbol version="1.0" xmlns="http://www.w3.org/2000/svg" preserveAspectRatio="xMidYMid meet" viewBox="0 0 835.000000 835.000000" id="play">
    <g transform="translate(0.000000,835.000000) scale(0.100000,-0.100000)"  stroke="none">
      <path d="M3850 8330 c-549 -51 -1011 -177 -1482 -403 -836 -401 -1545 -1109
-1944 -1942 -294 -615 -427 -1236 -411 -1915 6 -250 21 -406 63 -640 194
-1101 849 -2099 1789 -2727 226 -151 551 -321 795 -416 842 -328 1789 -374
2657 -128 1195 339 2190 1210 2686 2352 437 1005 459 2155 60 3179 -60 153
-225 489 -307 622 -328 538 -737 970 -1237 1308 -569 385 -1170 608 -1869 695
-148 19 -658 28 -800 15z m715 -370 c1262 -132 2361 -867 2967 -1985 396 -730
540 -1601 402 -2430 -131 -785 -501 -1503 -1063 -2065 -850 -848 -2031 -1244
-3221 -1079 -1639 227 -2950 1500 -3224 3131 -40 232 -51 376 -50 653 0 354
35 631 119 950 169 646 490 1212 960 1694 666 683 1537 1082 2500 1145 100 6
503 -3 610 -14z"></path>
      <path d="M2822 6319 c-69 -34 -96 -85 -100 -183 -2 -45 1 -964 6 -2042 9
-1895 10 -1963 28 -2000 10 -21 36 -52 57 -68 34 -27 47 -31 100 -31 58 0 70
4 167 61 58 33 413 241 790 461 1031 602 2033 1187 2330 1360 146 85 277 168
292 185 45 51 54 141 20 203 -21 39 -70 73 -252 177 -102 58 -383 219 -625
358 -697 400 -1567 899 -2115 1213 -278 160 -523 298 -545 308 -53 25 -101 24
-153 -2z m1111 -961 c452 -259 1061 -609 1352 -776 292 -167 570 -327 618
-355 l88 -50 -28 -17 c-15 -10 -390 -229 -833 -488 -443 -258 -1079 -630
-1415 -826 l-610 -356 -7 393 c-4 215 -8 969 -10 1675 -2 1037 -1 1281 10
1277 7 -2 383 -217 835 -477z"></path>
    </g>
  </symbol>
  <symbol version="1.0" xmlns="http://www.w3.org/2000/svg" preserveAspectRatio="xMidYMid meet" viewBox="0 0 980.000000 980.000000" id="pause">
    <g transform="translate(0.000000,980.000000) scale(0.100000,-0.100000)"  stroke="none">
      <path d="M4560 9789 c-1035 -75 -1992 -461 -2800 -1127 -148 -122 -500 -474
-622 -622 -534 -647 -880 -1372 -1042 -2180 -259 -1291 18 -2648 761 -3727
277 -403 628 -778 1018 -1087 930 -737 2150 -1115 3337 -1036 1418 95 2699
777 3569 1900 526 679 870 1511 978 2365 122 968 -36 1920 -464 2790 -236 479
-512 868 -895 1259 -813 830 -1836 1325 -3000 1451 -174 19 -664 27 -840 14z
m635 -489 c860 -63 1639 -349 2325 -853 338 -248 695 -608 941 -947 968 -1334
1120 -3075 395 -4546 -221 -449 -480 -809 -840 -1170 -361 -360 -721 -619
-1170 -840 -354 -174 -699 -292 -1086 -368 -1142 -227 -2303 0 -3284 641 -477
312 -924 755 -1243 1233 -399 599 -637 1258 -720 1993 -21 191 -24 683 -5 867
36 344 97 640 193 937 552 1714 2084 2918 3884 3052 162 12 450 12 610 1z"></path>
      <path d="M3265 7348 c-3 -7 -4 -1113 -3 -2458 l3 -2445 653 -3 652 -2 0 2460
0 2460 -650 0 c-511 0 -652 -3 -655 -12z"></path>
      <path d="M5260 4900 l0 -2460 653 2 652 3 0 2455 0 2455 -652 3 -653 2 0
-2460z"></path>
    </g>
  </symbol>
  <symbol version="1.0" xmlns="http://www.w3.org/2000/svg" preserveAspectRatio="xMidYMid meet" viewBox="0 0 512.000000 512.000000" id="forward">
    <g transform="translate(0.000000,512.000000) scale(0.100000,-0.100000)" stroke="none">
      <path d="M2105 4813 c-734 -98 -1394 -575 -1725 -1248 -315 -639 -315 -1372 0
-2010 321 -651 923 -1102 1648 -1236 142 -26 477 -37 633 -19 575 63 1121 352
1485 784 520 617 680 1440 428 2195 -258 771 -915 1352 -1709 1510 -55 11
-138 25 -185 31 -119 14 -444 11 -575 -7z m567 -279 c1075 -139 1848 -1122
1724 -2193 -110 -942 -837 -1661 -1781 -1762 -135 -14 -395 -6 -520 16 -412
73 -763 249 -1054 530 -177 171 -308 349 -410 559 -139 285 -201 553 -201 876
0 323 62 593 200 876 297 606 890 1026 1560 1103 125 14 350 12 482 -5z"></path>
      <path d="M1280 2560 c0 -583 3 -1060 6 -1060 3 0 290 205 637 455 l632 456 3
-456 c1 -250 5 -455 8 -455 9 0 1264 1052 1264 1060 0 8 -1255 1060 -1264
1060 -3 0 -7 -205 -8 -455 l-3 -456 -632 456 c-347 250 -634 455 -637 455 -3
0 -6 -477 -6 -1060z"></path>
    </g>
  </symbol>
  <symbol version="1.0" xmlns="http://www.w3.org/2000/svg" preserveAspectRatio="xMidYMid meet" viewBox="0 0 512.000000 512.000000" id="backward">
    <g transform="translate(0.000000,512.000000) scale(0.100000,-0.100000)"  stroke="none">
      <path d="M2285 4819 c-534 -71 -1013 -313 -1375 -696 -263 -278 -457 -626
-549 -986 -59 -228 -66 -290 -66 -577 0 -287 7 -349 66 -577 208 -813 885
-1464 1708 -1643 300 -66 665 -67 961 -5 323 68 630 209 908 418 124 93 336
305 429 429 209 278 350 585 418 908 62 296 61 661 -5 961 -128 589 -504 1120
-1021 1440 -251 156 -521 258 -829 314 -111 20 -531 30 -645 14z m520 -284
c997 -124 1745 -971 1745 -1975 0 -1098 -892 -1990 -1990 -1990 -1004 0 -1851
748 -1975 1745 -94 749 249 1492 880 1908 247 163 576 283 860 315 128 15 351
13 480 -3z"></path>
      <path d="M1775 3093 c-346 -289 -631 -528 -632 -532 -2 -6 1250 -1053 1268
-1059 5 -2 10 178 11 451 l3 455 560 -453 560 -454 3 529 c1 292 1 769 0 1060
l-3 530 -560 -454 -560 -454 -3 454 c-1 250 -6 454 -10 454 -4 -1 -290 -237
-637 -527z"></path>
    </g>
  </symbol>
</svg>